<svg width="29" height="26" viewBox="0 0 29 26" fill="none" xmlns="http://www.w3.org/2000/svg">
<path d="M2.50001 1.25193V4.67394C5.45001 1.51393 9.67202 -0.0630699 14.019 0.00193027C19.9601 0.0899305 24.7161 3.26994 27.8021 8.07595C27.8928 8.2141 27.9552 8.36885 27.9857 8.53126C28.0162 8.69368 28.0142 8.86053 27.9798 9.02216C27.9454 9.1838 27.8792 9.337 27.7853 9.47292C27.6913 9.60884 27.5713 9.72478 27.4322 9.81402C27.2931 9.90326 27.1377 9.96404 26.975 9.99284C26.8122 10.0216 26.6454 10.0179 26.4842 9.98179C26.3229 9.9457 26.1704 9.878 26.0355 9.78259C25.9005 9.68718 25.7858 9.56597 25.6981 9.42595C22.9851 5.20094 18.9471 2.57594 13.981 2.50094C9.96803 2.44094 6.21302 4.00394 3.78901 7.00095H7.75002C8.08154 7.00095 8.39948 7.13265 8.63391 7.36707C8.86833 7.60149 9.00002 7.91943 9.00002 8.25095C9.00002 8.58247 8.86833 8.90042 8.63391 9.13484C8.39948 9.36926 8.08154 9.50096 7.75002 9.50096H1.25C0.560001 9.50096 0 8.94095 0 8.25095V1.25093C0 0.919412 0.131696 0.601469 0.366117 0.367048C0.600539 0.132626 0.918482 0.000930106 1.25 0.000930106C1.58152 0.000930106 1.89947 0.132626 2.13389 0.367048C2.36831 0.601469 2.50001 0.920412 2.50001 1.25193ZM10.486 12.098C10.949 12.294 11.25 12.748 11.25 13.25V24.5C11.25 24.8315 11.1183 25.1495 10.8839 25.3839C10.6495 25.6183 10.3315 25.75 10 25.75C9.6685 25.75 9.35056 25.6183 9.11614 25.3839C8.88172 25.1495 8.75002 24.8315 8.75002 24.5V16.03C8.22891 16.3996 7.69279 16.7475 7.14302 17.073C6.85871 17.2435 6.51829 17.2941 6.19667 17.2137C5.87504 17.1332 5.59855 16.9283 5.42801 16.644C5.25748 16.3597 5.20687 16.0192 5.28733 15.6976C5.36778 15.376 5.5727 15.0995 5.85702 14.929C6.90302 14.301 7.49002 13.875 7.91302 13.518C8.22302 13.256 8.44402 13.035 8.72302 12.757C8.84302 12.637 8.97402 12.505 9.12802 12.356C9.30403 12.1843 9.52673 12.0684 9.76828 12.0227C10.0098 11.977 10.2595 12.0035 10.486 12.099M14.949 14.299C15.787 12.882 17.18 12 19.1001 12C21.0231 12 22.4141 12.88 23.2521 14.298C24.0331 15.62 24.2871 17.321 24.2871 18.999C24.2871 20.679 24.0331 22.379 23.2521 23.701C22.4141 25.12 21.0221 26 19.1001 26C17.178 26 15.787 25.12 14.95 23.702C14.168 22.38 13.914 20.679 13.914 19C13.914 17.322 14.168 15.62 14.949 14.299ZM17.101 15.571C16.653 16.33 16.414 17.504 16.414 19.001C16.414 20.497 16.653 21.671 17.101 22.431C17.494 23.094 18.071 23.501 19.1011 23.501C20.1311 23.501 20.7071 23.094 21.1001 22.431C21.5481 21.671 21.7871 20.497 21.7871 19.001C21.7871 17.504 21.5481 16.33 21.1001 15.571C20.7071 14.907 20.1301 14.501 19.1001 14.501C18.07 14.501 17.493 14.907 17.101 15.571Z" fill="white" fill-opacity="0.8"/>
</svg>
