<svg width="20" height="10" viewBox="0 0 20 10" fill="none" xmlns="http://www.w3.org/2000/svg">
<path d="M1.25 2.5C0.918479 2.5 0.600537 2.3683 0.366117 2.13388C0.131696 1.89946 0 1.58152 0 1.25C0 0.918479 0.131696 0.600536 0.366117 0.366116C0.600537 0.131695 0.918479 0 1.25 0H18.75C19.0815 0 19.3995 0.131695 19.6339 0.366116C19.8683 0.600536 20 0.918479 20 1.25C20 1.58152 19.8683 1.89946 19.6339 2.13388C19.3995 2.3683 19.0815 2.5 18.75 2.5H1.25ZM1.25 10C0.918479 10 0.600537 9.86831 0.366117 9.63388C0.131696 9.39946 0 9.08152 0 8.75C0 8.41848 0.131696 8.10054 0.366117 7.86612C0.600537 7.6317 0.918479 7.5 1.25 7.5H18.75C19.0815 7.5 19.3995 7.6317 19.6339 7.86612C19.8683 8.10054 20 8.41848 20 8.75C20 9.08152 19.8683 9.39946 19.6339 9.63388C19.3995 9.86831 19.0815 10 18.75 10H1.25Z" fill="black" fill-opacity="0.76"/>
</svg>
