<svg width="24" height="24" viewBox="0 0 24 24" fill="none" xmlns="http://www.w3.org/2000/svg">
<path fill-rule="evenodd" clip-rule="evenodd" d="M12 3.78951C10.4575 3.78986 8.94634 4.2247 7.63957 5.04421C6.33281 5.86373 5.28333 7.03478 4.61136 8.4232C3.9394 9.81161 3.67213 11.3612 3.84017 12.8945C4.00822 14.4278 4.60479 15.8828 5.56153 17.0927C6.51827 18.3026 7.79648 19.2185 9.24973 19.7356C10.703 20.2526 12.2725 20.3498 13.7784 20.016C15.2843 19.6823 16.6658 18.9311 17.7645 17.8484C18.8632 16.7658 19.6348 15.3956 19.9907 13.8948H13.2632C12.7606 13.8948 12.2787 13.6951 11.9234 13.3398C11.568 12.9845 11.3684 12.5025 11.3684 12C11.3684 11.4975 11.568 11.0156 11.9234 10.6602C12.2787 10.3049 12.7606 10.1053 13.2632 10.1053H22.1053C22.6078 10.1053 23.0897 10.3049 23.445 10.6602C23.8004 11.0156 24 11.4975 24 12C24 14.7749 23.0383 17.464 21.2787 19.6095C19.5191 21.7551 17.0703 23.2246 14.3492 23.7678C11.628 24.311 8.80269 23.8944 6.35415 22.5889C3.90561 21.2833 1.98518 19.1696 0.919773 16.6074C-0.145637 14.0453 -0.290181 11.1931 0.510747 8.53634C1.31167 5.8796 3.00857 3.58254 5.31258 2.03616C7.6166 0.489783 10.3853 -0.210328 13.1474 0.0550038C15.9096 0.320335 18.4944 1.53471 20.4619 3.49141C20.6383 3.66691 20.7784 3.87544 20.8743 4.10509C20.9701 4.33474 21.0197 4.58102 21.0204 4.82986C21.021 5.0787 20.9726 5.32523 20.878 5.55538C20.7834 5.78553 20.6443 5.99478 20.4688 6.17119C20.2933 6.34761 20.0848 6.48773 19.8552 6.58355C19.6255 6.67937 19.3792 6.72902 19.1304 6.72967C18.6278 6.73097 18.1453 6.53258 17.7891 6.17814C17.0283 5.41923 16.1255 4.81767 15.1322 4.40781C14.1389 3.99796 13.0745 3.78786 12 3.78951Z" fill="white"/>
</svg>
