<svg width="19" height="20" viewBox="0 0 19 20" fill="none" xmlns="http://www.w3.org/2000/svg">
<path d="M16.7635 10.7224C16.8042 10.4172 16.8246 10.1019 16.8246 9.76615C16.8246 9.44061 16.8042 9.11508 16.7534 8.80988L18.8185 7.20254C18.9075 7.12919 18.9683 7.02725 18.9906 6.9141C19.0128 6.80094 18.9951 6.68357 18.9406 6.58198L16.9873 3.20452C16.9298 3.10235 16.838 3.02382 16.7282 2.98286C16.6183 2.94189 16.4975 2.94113 16.3871 2.98071L13.9558 3.95733C13.4471 3.57075 12.9079 3.24521 12.3077 3.00106L11.9415 0.417099C11.9235 0.300648 11.8643 0.194519 11.7747 0.117986C11.6851 0.0414533 11.571 -0.000408454 11.4532 3.00451e-06H7.54673C7.30258 3.00451e-06 7.10929 0.172945 7.0686 0.417099L6.70237 3.00106C6.10216 3.24521 5.55281 3.58092 5.05433 3.95733L2.62297 2.98071C2.39916 2.89933 2.14483 2.98071 2.02276 3.20452L0.0796989 6.58198C-0.0423779 6.79561 -0.00168575 7.06011 0.201776 7.20254L2.26691 8.80988C2.21604 9.11508 2.17535 9.45079 2.17535 9.76615C2.17535 10.0815 2.1957 10.4172 2.24656 10.7224L0.18143 12.3298C0.0924396 12.4031 0.0316348 12.5051 0.00937499 12.6182C-0.0128849 12.7314 0.00477756 12.8487 0.0593528 12.9503L2.01258 16.3278C2.13466 16.5516 2.38899 16.6228 2.61279 16.5516L5.04416 15.575C5.55281 15.9616 6.09198 16.2871 6.6922 16.5312L7.05843 19.1152C7.10929 19.3594 7.30258 19.5323 7.54673 19.5323H11.4532C11.6973 19.5323 11.9008 19.3594 11.9313 19.1152L12.2976 16.5312C12.8978 16.2871 13.4471 15.9616 13.9456 15.575L16.377 16.5516C16.6008 16.633 16.8551 16.5516 16.9772 16.3278L18.9304 12.9503C19.0525 12.7265 19.0016 12.4722 18.8083 12.3298L16.7635 10.7224ZM9.49996 13.4285C7.48569 13.4285 5.83766 11.7804 5.83766 9.76615C5.83766 7.75188 7.48569 6.10385 9.49996 6.10385C11.5142 6.10385 13.1623 7.75188 13.1623 9.76615C13.1623 11.7804 11.5142 13.4285 9.49996 13.4285Z" fill="white"/>
</svg>
