<svg width="24" height="24" viewBox="0 0 24 24" fill="none" xmlns="http://www.w3.org/2000/svg">
<path d="M10.8673 24H13.1327C13.9963 24 14.6579 23.4724 14.8598 22.6417L15.3421 20.5426L15.7009 20.4191L17.529 21.5416C18.2579 22.0019 19.0991 21.8896 19.7159 21.2722L21.286 19.7119C21.9028 19.0945 22.015 18.2413 21.5551 17.5229L20.4112 15.7044L20.5458 15.3676L22.643 14.8737C23.4617 14.6717 24 13.9981 24 13.145V10.9224C24 10.0692 23.4729 9.3957 22.643 9.19364L20.5682 8.68849L20.4224 8.32928L21.5664 6.51076C22.0262 5.79233 21.914 4.95042 21.2972 4.3218L19.7271 2.75023C19.1215 2.14406 18.2804 2.03181 17.5514 2.48082L15.7234 3.60337L15.3421 3.45744L14.8598 1.35828C14.6579 0.527596 13.9963 0 13.1327 0H10.8673C10.0037 0 9.34206 0.527596 9.14019 1.35828L8.64673 3.45744L8.26542 3.60337L6.4486 2.48082C5.71963 2.03181 4.86729 2.14406 4.26168 2.75023L2.7028 4.3218C2.08598 4.95042 1.96262 5.79233 2.43365 6.51076L3.56636 8.32928L3.43178 8.68849L1.35701 9.19364C0.527103 9.3957 0 10.0692 0 10.9224V13.145C0 13.9981 0.538318 14.6717 1.35701 14.8737L3.45421 15.3676L3.57757 15.7044L2.44486 17.5229C1.97383 18.2413 2.0972 19.0945 2.71402 19.7119L4.2729 21.2722C4.88972 21.8896 5.74206 22.0019 6.47103 21.5416L8.28785 20.4191L8.64673 20.5426L9.14019 22.6417C9.34206 23.4724 10.0037 24 10.8673 24ZM11.0467 22.2488C10.8561 22.2488 10.7551 22.1703 10.7215 21.9906L10.0486 19.2067C9.36449 19.0384 8.72523 18.7689 8.24299 18.4659L5.79813 19.9701C5.66355 20.0711 5.51776 20.0486 5.38318 19.9139L4.05981 18.5893C3.93645 18.4659 3.92523 18.3312 4.01495 18.174L5.51776 15.7493C5.25981 15.2778 4.96822 14.638 4.78878 13.9532L2.00748 13.2909C1.82804 13.2572 1.74953 13.1562 1.74953 12.9654V11.0907C1.74953 10.8887 1.81682 10.7989 2.00748 10.7652L4.77757 10.0917C4.95701 9.36202 5.29346 8.69972 5.49533 8.28438L4.00374 5.85968C3.9028 5.6913 3.91402 5.5566 4.03738 5.42189L5.37196 4.11974C5.50654 3.98503 5.62991 3.96258 5.79813 4.06361L8.22056 5.53414C8.7028 5.26473 9.38692 4.9841 10.0598 4.79326L10.7215 2.00935C10.7551 1.82975 10.8561 1.75117 11.0467 1.75117H12.9533C13.1439 1.75117 13.2449 1.82975 13.2673 2.00935L13.9514 4.81572C14.6467 4.99532 15.2523 5.27596 15.757 5.54537L18.1907 4.06361C18.3701 3.96258 18.4822 3.98503 18.628 4.11974L19.9514 5.42189C20.086 5.5566 20.086 5.6913 19.985 5.85968L18.4935 8.28438C18.7065 8.69972 19.0318 9.36202 19.2112 10.0917L21.9925 10.7652C22.172 10.7989 22.2505 10.8887 22.2505 11.0907V12.9654C22.2505 13.1562 22.1607 13.2572 21.9925 13.2909L19.2 13.9532C19.0206 14.638 18.7402 15.2778 18.471 15.7493L19.9738 18.174C20.0636 18.3312 20.0636 18.4659 19.929 18.5893L18.6168 19.9139C18.471 20.0486 18.3364 20.0711 18.1907 19.9701L15.7458 18.4659C15.2636 18.7689 14.6355 19.0384 13.9514 19.2067L13.2673 21.9906C13.2449 22.1703 13.1439 22.2488 12.9533 22.2488H11.0467ZM12 16.2881C14.3439 16.2881 16.2729 14.3573 16.2729 12C16.2729 9.66511 14.3439 7.73433 12 7.73433C9.65607 7.73433 7.71589 9.66511 7.71589 12C7.71589 14.3461 9.64486 16.2881 12 16.2881ZM12 14.5482C10.6093 14.5482 9.46542 13.4032 9.46542 12C9.46542 10.6193 10.6093 9.47427 12 9.47427C13.3682 9.47427 14.5121 10.6193 14.5121 12C14.5121 13.392 13.3682 14.5482 12 14.5482Z" fill="#5093B8"/>
</svg>
