<svg width="24" height="32" viewBox="0 0 24 32" fill="none" xmlns="http://www.w3.org/2000/svg">
<path d="M24 2.66667V29.3333C24 30.0406 23.7701 30.7189 23.361 31.219C22.9518 31.719 22.3968 32 21.8182 32H16.3636C15.785 32 15.23 31.719 14.8209 31.219C14.4117 30.7189 14.1818 30.0406 14.1818 29.3333V2.66667C14.1818 1.95942 14.4117 1.28115 14.8209 0.781048C15.23 0.280951 15.785 0 16.3636 0H21.8182C22.3968 0 22.9518 0.280951 23.361 0.781048C23.7701 1.28115 24 1.95942 24 2.66667ZM7.63636 0H2.18182C1.60316 0 1.04821 0.280951 0.63904 0.781048C0.229869 1.28115 0 1.95942 0 2.66667V29.3333C0 30.0406 0.229869 30.7189 0.63904 31.219C1.04821 31.719 1.60316 32 2.18182 32H7.63636C8.21502 32 8.76997 31.719 9.17914 31.219C9.58831 30.7189 9.81818 30.0406 9.81818 29.3333V2.66667C9.81818 1.95942 9.58831 1.28115 9.17914 0.781048C8.76997 0.280951 8.21502 0 7.63636 0Z" fill="white" fill-opacity="0.8"/>
</svg>
