<svg width="18" height="18" viewBox="0 0 18 18" fill="none" xmlns="http://www.w3.org/2000/svg">
<path d="M0.502796 17.9428H17.4973C17.6307 17.9428 17.7585 17.8899 17.8528 17.7956C17.9471 17.7013 18.0001 17.5734 18.0001 17.44C18.0001 17.3067 17.9471 17.1788 17.8528 17.0845C17.7585 16.9902 17.6307 16.9372 17.4973 16.9372H0.502796C0.369446 16.9372 0.241558 16.9902 0.147265 17.0845C0.0529729 17.1788 0 17.3067 0 17.44C0 17.5734 0.0529729 17.7013 0.147265 17.7956C0.241558 17.8899 0.369446 17.9428 0.502796 17.9428ZM6.69925 14.1638C7.12402 14.0449 7.51158 13.82 7.82552 13.5102L17.4189 3.91683C17.7474 3.58701 17.9318 3.14045 17.9318 2.67493C17.9318 2.2094 17.7474 1.76284 17.4189 1.43302L16.4736 0.497819C16.1391 0.178297 15.6943 0 15.2317 0C14.7691 0 14.3243 0.178297 13.9898 0.497819L4.39645 10.0811C4.08606 10.393 3.86398 10.7816 3.75287 11.2074L3.00873 13.9828C2.97343 14.1096 2.97252 14.2435 3.0061 14.3707C3.03968 14.498 3.10653 14.614 3.19979 14.7068C3.34213 14.8468 3.53317 14.9261 3.73276 14.9281L6.69925 14.1638ZM7.11155 12.7962C6.92616 12.9849 6.69347 13.1204 6.4378 13.1884L5.46238 13.4498L4.45678 12.4443L4.71824 11.4688C4.78858 11.2141 4.92369 10.982 5.11042 10.7951L5.49254 10.423L7.49367 12.4241L7.11155 12.7962ZM8.20764 11.7102L6.20651 9.70904L12.9741 2.94141L14.9753 4.94254L8.20764 11.7102ZM16.7049 3.21292L15.6892 4.22857L13.6881 2.22744L14.7038 1.20173C14.7737 1.13156 14.8567 1.07588 14.9482 1.03788C15.0396 0.99989 15.1377 0.980331 15.2367 0.980331C15.3358 0.980331 15.4338 0.99989 15.5253 1.03788C15.6168 1.07588 15.6998 1.13156 15.7697 1.20173L16.7049 2.14699C16.8452 2.28892 16.9238 2.48041 16.9238 2.67995C16.9238 2.87949 16.8452 3.07099 16.7049 3.21292Z" fill="black"/>
</svg>
