<svg width="16" height="16" viewBox="0 0 16 16" fill="none" xmlns="http://www.w3.org/2000/svg">
<path d="M13 3.625H11.2006L10.3125 2.29188C10.2782 2.24046 10.2317 2.19832 10.1772 2.16921C10.1227 2.1401 10.0618 2.12491 10 2.125H6C5.93819 2.12491 5.87732 2.1401 5.8228 2.16921C5.76828 2.19832 5.7218 2.24046 5.6875 2.29188L4.79875 3.625H3C2.63533 3.625 2.28559 3.76987 2.02773 4.02773C1.76987 4.28559 1.625 4.63533 1.625 5V12C1.625 12.3647 1.76987 12.7144 2.02773 12.9723C2.28559 13.2301 2.63533 13.375 3 13.375H13C13.3647 13.375 13.7144 13.2301 13.9723 12.9723C14.2301 12.7144 14.375 12.3647 14.375 12V5C14.375 4.63533 14.2301 4.28559 13.9723 4.02773C13.7144 3.76987 13.3647 3.625 13 3.625ZM13.625 12C13.625 12.1658 13.5592 12.3247 13.4419 12.4419C13.3247 12.5592 13.1658 12.625 13 12.625H3C2.83424 12.625 2.67527 12.5592 2.55806 12.4419C2.44085 12.3247 2.375 12.1658 2.375 12V5C2.375 4.83424 2.44085 4.67527 2.55806 4.55806C2.67527 4.44085 2.83424 4.375 3 4.375H5C5.06181 4.37509 5.12268 4.35991 5.1772 4.33079C5.23172 4.30168 5.2782 4.25954 5.3125 4.20813L6.20062 2.875H9.79875L10.6875 4.20813C10.7218 4.25954 10.7683 4.30168 10.8228 4.33079C10.8773 4.35991 10.9382 4.37509 11 4.375H13C13.1658 4.375 13.3247 4.44085 13.4419 4.55806C13.5592 4.67527 13.625 4.83424 13.625 5V12ZM8 5.625C7.48082 5.625 6.97331 5.77895 6.54163 6.06739C6.10995 6.35583 5.7735 6.7658 5.57482 7.24546C5.37614 7.72511 5.32415 8.25291 5.42544 8.76211C5.52672 9.27131 5.77673 9.73904 6.14384 10.1062C6.51096 10.4733 6.97869 10.7233 7.48789 10.8246C7.99709 10.9258 8.52489 10.8739 9.00454 10.6752C9.4842 10.4765 9.89417 10.1401 10.1826 9.70837C10.471 9.27669 10.625 8.76918 10.625 8.25C10.625 7.55381 10.3484 6.88613 9.85616 6.39385C9.36387 5.90156 8.69619 5.625 8 5.625ZM8 10.125C7.62916 10.125 7.26665 10.015 6.95831 9.80901C6.64996 9.60298 6.40964 9.31014 6.26773 8.96753C6.12581 8.62492 6.08868 8.24792 6.16103 7.88421C6.23337 7.52049 6.41195 7.1864 6.67417 6.92418C6.9364 6.66195 7.27049 6.48338 7.63421 6.41103C7.99792 6.33868 8.37492 6.37581 8.71753 6.51773C9.06014 6.65964 9.35298 6.89996 9.55901 7.20831C9.76503 7.51665 9.875 7.87916 9.875 8.25C9.875 8.74728 9.67746 9.2242 9.32583 9.57583C8.9742 9.92746 8.49728 10.125 8 10.125Z" fill="white"/>
</svg>
