<svg width="11" height="21" viewBox="0 0 11 21" fill="none" xmlns="http://www.w3.org/2000/svg">
<path d="M10.7044 1.76595C10.7988 1.66603 10.8726 1.54848 10.9216 1.42003C10.9706 1.29158 10.9939 1.15473 10.99 1.0173C10.9861 0.879876 10.9552 0.744561 10.899 0.619083C10.8428 0.493605 10.7625 0.380421 10.6625 0.285995C10.5626 0.191569 10.4451 0.117748 10.3166 0.0687491C10.1882 0.0197499 10.0513 -0.00346894 9.91389 0.00041866C9.77646 0.00430626 9.64115 0.035224 9.51567 0.0914066C9.39019 0.147589 9.27701 0.227936 9.18258 0.327861L0.286093 9.74767C0.102369 9.942 0 10.1993 0 10.4667C0 10.7341 0.102369 10.9914 0.286093 11.1858L9.18258 20.6066C9.27638 20.7087 9.38954 20.7912 9.51548 20.8492C9.64142 20.9072 9.77763 20.9396 9.9162 20.9445C10.0548 20.9495 10.1929 20.9268 10.3227 20.8779C10.4524 20.8289 10.5711 20.7547 10.672 20.6595C10.7728 20.5643 10.8537 20.4501 10.9099 20.3233C10.9662 20.1966 10.9967 20.06 10.9998 19.9213C11.0028 19.7827 10.9782 19.6449 10.9275 19.5158C10.8768 19.3868 10.801 19.2691 10.7044 19.1696L2.48614 10.4667L10.7044 1.76595Z" fill="#5093B8"/>
</svg>
