<svg width="22" height="22" viewBox="0 0 22 22" fill="none" xmlns="http://www.w3.org/2000/svg">
<path d="M8.55237 0.273209C9.34028 0.0941395 10.1589 0 11 0C17.0751 0 22 4.92493 22 11C22 17.0751 17.0751 22 11 22C10.1589 22 9.34028 21.9059 8.55237 21.7268C8.45408 21.7045 8.36114 21.663 8.27886 21.6048C8.19658 21.5466 8.12658 21.4727 8.07285 21.3874C8.01911 21.3022 7.9827 21.2071 7.9657 21.1078C7.94869 21.0084 7.95141 20.9067 7.97372 20.8084C7.99603 20.7101 8.03748 20.6172 8.0957 20.5349C8.15393 20.4526 8.22779 20.3826 8.31306 20.3289C8.39834 20.2752 8.49337 20.2387 8.59272 20.2217C8.69207 20.2047 8.7938 20.2075 8.89209 20.2298C10.278 20.5447 11.717 20.5435 13.1023 20.2263C14.4877 19.9091 15.7838 19.284 16.8945 18.3974C18.0053 17.5107 18.9021 16.3854 19.5184 15.1048C20.1347 13.8242 20.4548 12.4212 20.4548 11C20.4548 9.5788 20.1347 8.17583 19.5184 6.89523C18.9021 5.61462 18.0053 4.48925 16.8945 3.60263C15.7838 2.716 14.4877 2.09089 13.1023 1.77367C11.717 1.45645 10.278 1.45528 8.89209 1.77023C8.69357 1.81528 8.48529 1.77963 8.31306 1.67111C8.14084 1.56259 8.01877 1.3901 7.97372 1.19158C7.92867 0.993064 7.96433 0.784781 8.07285 0.612553C8.18136 0.440325 8.35385 0.318259 8.55237 0.273209ZM6.20502 1.92577C6.31339 2.09798 6.34893 2.30617 6.30383 2.50457C6.25874 2.70298 6.13671 2.87536 5.96456 2.98381C4.76059 3.74245 3.74203 4.76136 2.98381 5.96558C2.87526 6.13791 2.7027 6.26006 2.50408 6.30515C2.30547 6.35025 2.09707 6.3146 1.92474 6.20605C1.75242 6.09749 1.63027 5.92493 1.58517 5.72631C1.54008 5.5277 1.57573 5.31931 1.68428 5.14698C2.56524 3.74876 3.7485 2.56585 5.14698 1.6853C5.23229 1.63149 5.32737 1.59502 5.42678 1.57798C5.5262 1.56094 5.628 1.56366 5.72636 1.58599C5.82472 1.60833 5.91771 1.64983 6.00002 1.70813C6.08233 1.76643 6.15132 1.84039 6.20502 1.92577ZM1.77023 8.89209C1.81528 8.69357 1.77963 8.48529 1.67111 8.31306C1.56259 8.14084 1.3901 8.01877 1.19158 7.97372C0.993064 7.92867 0.784781 7.96433 0.612553 8.07285C0.440325 8.18136 0.318259 8.35385 0.273209 8.55237C0.0941395 9.34028 0 10.1589 0 11C0 11.8411 0.0941395 12.6597 0.273209 13.4487C0.318395 13.6472 0.44059 13.8196 0.612915 13.928C0.785239 14.0364 0.993575 14.072 1.19209 14.0268C1.39061 13.9816 1.56305 13.8594 1.67147 13.6871C1.77989 13.5148 1.81542 13.3064 1.77023 13.1079C1.61334 12.4163 1.5344 11.7092 1.53488 11C1.53488 10.2745 1.61674 9.56949 1.77023 8.89209ZM1.92577 15.795C2.09798 15.6866 2.30617 15.6511 2.50457 15.6962C2.70298 15.7413 2.87536 15.8633 2.98381 16.0354C3.74213 17.2393 4.76068 18.2579 5.96456 19.0162C6.04989 19.0699 6.12379 19.14 6.18206 19.2223C6.24032 19.3046 6.2818 19.3976 6.30413 19.4959C6.32646 19.5943 6.3292 19.696 6.3122 19.7954C6.29519 19.8948 6.25877 19.9899 6.20502 20.0753C6.15127 20.1606 6.08124 20.2345 5.99893 20.2928C5.91662 20.351 5.82363 20.3925 5.72529 20.4148C5.52668 20.4599 5.31828 20.4243 5.14595 20.3157C3.74824 19.4349 2.5657 18.252 1.6853 16.854C1.63149 16.7687 1.59502 16.6737 1.57798 16.5742C1.56094 16.4748 1.56366 16.373 1.58599 16.2747C1.60833 16.1763 1.64983 16.0833 1.70813 16.001C1.76643 15.9187 1.84039 15.8487 1.92577 15.795Z" fill="white"/>
<path d="M14.4934 9.9164C15.2926 10.3891 15.2926 11.6109 14.4934 12.0837L9.66363 14.9355C8.88595 15.3939 7.93023 14.7963 7.93023 13.8508V8.14923C7.93023 7.20374 8.88595 6.60719 9.66363 7.06561L14.4934 9.9164Z" fill="white"/>
</svg>
