<svg width="18" height="18" viewBox="0 0 18 18" fill="none" xmlns="http://www.w3.org/2000/svg">
<path d="M2.57143 15.4286H16.7143C17.0553 15.4286 17.3823 15.564 17.6234 15.8051C17.8645 16.0463 18 16.3733 18 16.7143C18 17.0553 17.8645 17.3823 17.6234 17.6234C17.3823 17.8645 17.0553 18 16.7143 18H1.28571C0.944722 18 0.617694 17.8645 0.376576 17.6234C0.135458 17.3823 0 17.0553 0 16.7143V1.28571C0 0.944722 0.135458 0.617695 0.376576 0.376577C0.617694 0.135459 0.944722 0 1.28571 0C1.62671 0 1.95373 0.135459 2.19485 0.376577C2.43597 0.617695 2.57143 0.944722 2.57143 1.28571V15.4286Z" fill="black" fill-opacity="0.76"/>
</svg>
