<svg width="9" height="20" viewBox="0 0 9 20" fill="none" xmlns="http://www.w3.org/2000/svg">
<path d="M7.77313 4.92536C7.77313 3.84673 7.45035 2.97968 6.80478 2.3242C6.1599 1.66871 5.31088 1.34097 4.25773 1.34097C3.57729 1.34097 2.98369 1.49099 2.47695 1.79104C1.97021 2.09031 1.53185 2.55192 1.16188 3.17586C1.04631 3.35281 0.898252 3.4636 0.717712 3.50822C0.536489 3.55284 0.373729 3.51322 0.229434 3.38936C0.10839 3.28703 0.0348749 3.15317 0.00888804 2.98776C-0.0164149 2.82158 0.0123075 2.66386 0.0950549 2.51461C0.589488 1.66525 1.18103 1.034 1.86968 0.620863C2.55765 0.206954 3.35366 0 4.25773 0C5.65281 0 6.79179 0.455068 7.67465 1.36521C8.55821 2.27534 8.99998 3.45321 8.99998 4.89881C8.99998 5.70509 8.84406 6.45789 8.53222 7.15723C8.22038 7.85733 7.73381 8.53821 7.07251 9.19984C6.26897 9.99073 5.71641 10.6551 5.41483 11.1928C5.11393 11.7314 4.95561 12.3295 4.93989 12.9873C4.92416 13.1827 4.85748 13.3455 4.73985 13.4755C4.62223 13.6063 4.47862 13.6717 4.30902 13.6717C4.13942 13.6717 3.99581 13.604 3.87819 13.4686C3.75988 13.3332 3.70072 13.1697 3.70072 12.9781C3.70072 12.1841 3.8693 11.4598 4.20644 10.8051C4.5429 10.1504 5.10572 9.43219 5.8949 8.65053C6.59586 7.96273 7.08414 7.33533 7.35974 6.76833C7.63533 6.20055 7.77313 5.58622 7.77313 4.92536ZM4.25773 19.9738C3.98282 19.9738 3.74312 19.8588 3.53865 19.6287C3.33349 19.3979 3.23091 19.1283 3.23091 18.8198C3.23091 18.5112 3.33349 18.2416 3.53865 18.0108C3.74312 17.7807 3.98248 17.6657 4.25671 17.6657C4.53093 17.6657 4.77097 17.7807 4.97681 18.0108C5.18129 18.2416 5.28353 18.5112 5.28353 18.8198C5.28353 19.1283 5.18095 19.3979 4.97579 19.6287C4.772 19.8588 4.53265 19.9738 4.25773 19.9738Z" fill="black"/>
</svg>
