<svg width="21" height="16" viewBox="0 0 21 16" fill="none" xmlns="http://www.w3.org/2000/svg">
<path d="M10.154 16C8.75648 16 7.44023 15.7896 6.2052 15.3689C4.97018 14.9481 3.89461 14.3763 2.9785 13.6533C2.06088 12.9321 1.33506 12.0847 0.801036 11.1111C0.267012 10.1381 0 9.10104 0 8C0 6.896 0.267012 5.85807 0.801036 4.88622C1.33581 3.91437 2.06163 3.06756 2.9785 2.34578C3.89386 1.624 4.96943 1.05274 6.2052 0.632C7.44023 0.210667 8.75648 0 10.154 0C11.5552 0 12.8726 0.21037 14.1061 0.631111C15.3396 1.05244 16.4145 1.6243 17.3306 2.34667C18.2467 3.06844 18.9718 3.91496 19.5058 4.88622C20.0406 5.85807 20.3079 6.896 20.3079 8C20.3079 9.10104 20.0409 10.1381 19.5069 11.1111C18.9729 12.0841 18.2471 12.9316 17.3294 13.6533C16.4133 14.3757 15.3389 14.9476 14.1061 15.3689C12.8726 15.7896 11.5552 16 10.154 16ZM10.154 15.1182C10.8159 14.448 11.3619 13.7899 11.7921 13.144C12.2216 12.4981 12.571 11.7751 12.8403 10.9751H7.46768C7.76553 11.8201 8.12205 12.5656 8.53723 13.2116C8.95242 13.8575 9.49133 14.493 10.154 15.1182ZM8.71775 14.9849C8.19125 14.496 7.71063 13.8916 7.27589 13.1716C6.84115 12.4521 6.51772 11.7197 6.30562 10.9742H1.97777C2.62461 12.08 3.5411 12.9867 4.72724 13.6942C5.91412 14.4018 7.24392 14.832 8.71662 14.9849M11.5891 14.9849C13.0618 14.832 14.3916 14.4018 15.5785 13.6942C16.7653 12.9867 17.6818 12.08 18.3279 10.9742H14.0023C13.7165 11.731 13.3566 12.4693 12.9226 13.1893C12.4879 13.9087 12.0434 14.5073 11.5891 14.9849ZM1.51745 10.0853H6.06982C5.98407 9.72089 5.9239 9.36563 5.8893 9.01956C5.8532 8.67348 5.83515 8.33363 5.83515 8C5.83515 7.66637 5.85282 7.32652 5.88818 6.98044C5.92353 6.63437 5.9837 6.27881 6.06869 5.91378H1.51971C1.39711 6.22193 1.30121 6.55763 1.23202 6.92089C1.16282 7.28415 1.12822 7.64385 1.12822 8C1.12822 8.35674 1.16244 8.71644 1.23089 9.07911C1.30008 9.44237 1.39598 9.77778 1.51858 10.0853M7.19917 10.0853H13.1088C13.1945 9.72089 13.2547 9.37126 13.2893 9.03644C13.3254 8.70222 13.3434 8.35674 13.3434 8C13.3434 7.64326 13.3258 7.29778 13.2904 6.96356C13.2551 6.62874 13.1949 6.27911 13.1099 5.91467H7.19804C7.11305 6.27911 7.05287 6.62874 7.01752 6.96356C6.98217 7.29778 6.9645 7.64326 6.9645 8C6.9645 8.35674 6.98217 8.70222 7.01752 9.03644C7.05287 9.37126 7.11417 9.72089 7.19917 10.0853ZM14.2381 10.0853H18.7894C18.912 9.77719 19.0079 9.44178 19.0771 9.07911C19.1463 8.71644 19.1805 8.35674 19.1797 8C19.1797 7.64326 19.1455 7.28356 19.0771 6.92089C19.0079 6.55763 18.912 6.22222 18.7894 5.91467H14.237C14.3227 6.27911 14.3829 6.63437 14.4175 6.98044C14.4536 7.32652 14.4717 7.66637 14.4717 8C14.4717 8.33363 14.454 8.67348 14.4186 9.01956C14.3833 9.36563 14.3231 9.72119 14.2381 10.0862M14.0035 5.02578H18.329C17.6679 3.89748 16.7623 2.99081 15.6123 2.30578C14.4615 1.62074 13.1208 1.18519 11.5902 0.999111C12.1167 1.5443 12.5902 2.1683 13.0106 2.87111C13.4303 3.57333 13.7613 4.29156 14.0035 5.02578ZM7.46768 5.02578H12.8403C12.5424 4.19141 12.175 3.43704 11.738 2.76267C11.3017 2.0877 10.7737 1.46074 10.154 0.881778C9.53496 1.46074 9.00695 2.0877 8.56995 2.76267C8.13371 3.43704 7.76628 4.19141 7.46768 5.02578ZM1.9789 5.02578H6.30449C6.54668 4.29156 6.87762 3.57333 7.29732 2.87111C7.71777 2.1683 8.19125 1.544 8.71775 0.998222C7.17284 1.18489 5.82876 1.62341 4.68549 2.31378C3.54223 3.00474 2.63966 3.90844 1.97777 5.02489" fill="black"/>
</svg>
