<svg width="24" height="26" viewBox="0 0 24 26" fill="none" xmlns="http://www.w3.org/2000/svg">
<path d="M24 11.8182C24 18.3773 18.88 24.5109 12 26C5.12 24.5109 0 18.3773 0 11.8182V4.72727L12 0L24 4.72727V11.8182ZM12 23.6364C17 22.4545 21.3333 17.1836 21.3333 12.0782V6.26364L12 2.57636L2.66667 6.26364V12.0782C2.66667 17.1836 7 22.4545 12 23.6364ZM15.7333 11.8182V10.0455C15.7333 8.39091 13.8667 7.09091 12 7.09091C10.1333 7.09091 8.26667 8.39091 8.26667 10.0455V11.8182C7.46667 11.8182 6.66667 12.5273 6.66667 13.2364V17.3727C6.66667 18.2 7.46667 18.9091 8.26667 18.9091H15.6C16.5333 18.9091 17.3333 18.2 17.3333 17.4909V13.3545C17.3333 12.5273 16.5333 11.8182 15.7333 11.8182ZM14 11.8182H10V10.0455C10 9.1 10.9333 8.50909 12 8.50909C13.0667 8.50909 14 9.1 14 10.0455V11.8182Z" fill="black"/>
</svg>
