<svg width="24" height="24" viewBox="0 0 24 24" fill="none" xmlns="http://www.w3.org/2000/svg">
<path d="M1.25874 20.0559C1.25874 18.6316 1.82458 17.2655 2.83176 16.2583C3.83895 15.2511 5.205 14.6853 6.62938 14.6853H17.3706C18.795 14.6853 20.1611 15.2511 21.1683 16.2583C22.1754 17.2655 22.7413 18.6316 22.7413 20.0559C22.7413 20.7681 22.4584 21.4512 21.9548 21.9547C21.4512 22.4583 20.7682 22.7413 20.056 22.7413H3.94406C3.23187 22.7413 2.54885 22.4583 2.04525 21.9547C1.54166 21.4512 1.25874 20.7681 1.25874 20.0559Z" stroke="#5093B8" stroke-width="2.5" stroke-linejoin="round"/>
<path d="M12.0001 9.31469C14.2247 9.31469 16.0281 7.51131 16.0281 5.28672C16.0281 3.06213 14.2247 1.25874 12.0001 1.25874C9.7755 1.25874 7.97212 3.06213 7.97212 5.28672C7.97212 7.51131 9.7755 9.31469 12.0001 9.31469Z" stroke="#5093B8" stroke-width="2.5"/>
</svg>
