<svg width="24" height="24" viewBox="0 0 24 24" fill="none" xmlns="http://www.w3.org/2000/svg">
<path d="M24 12C23.9994 8.8176 22.7349 5.76572 20.4846 3.51542C18.2343 1.26512 15.1824 0.00063629 12 0V2.4C13.8985 2.40043 15.7543 2.96356 17.3329 4.01824C18.9115 5.07293 20.1421 6.57184 20.8692 8.3256C21.3517 9.49052 21.6001 10.7391 21.6 12H24ZM0 9.6V3.6C0 3.28174 0.126428 2.97652 0.351472 2.75147C0.576515 2.52643 0.88174 2.4 1.2 2.4H7.2C7.51826 2.4 7.82348 2.52643 8.04853 2.75147C8.27357 2.97652 8.4 3.28174 8.4 3.6V8.4C8.4 8.71826 8.27357 9.02348 8.04853 9.24853C7.82348 9.47357 7.51826 9.6 7.2 9.6H4.8C4.8 12.1461 5.81143 14.5879 7.61177 16.3882C9.41212 18.1886 11.8539 19.2 14.4 19.2V16.8C14.4 16.4817 14.5264 16.1765 14.7515 15.9515C14.9765 15.7264 15.2817 15.6 15.6 15.6H20.4C20.7183 15.6 21.0235 15.7264 21.2485 15.9515C21.4736 16.1765 21.6 16.4817 21.6 16.8V22.8C21.6 23.1183 21.4736 23.4235 21.2485 23.6485C21.0235 23.8736 20.7183 24 20.4 24H14.4C6.4476 24 0 17.5524 0 9.6Z" fill="white"/>
</svg>
