<svg width="14" height="16" viewBox="0 0 14 16" fill="none" xmlns="http://www.w3.org/2000/svg">
<path d="M2.615 15.77C2.16833 15.77 1.78733 15.6127 1.472 15.298C1.15733 14.9833 1 14.6023 1 14.155V1.77H0V0.77H4V0H10V0.77H14V1.77H13V14.155C13 14.615 12.846 14.999 12.538 15.307C12.2293 15.6157 11.845 15.77 11.385 15.77H2.615ZM12 1.77H2V14.155C2 14.3343 2.05767 14.4817 2.173 14.597C2.28833 14.7123 2.43567 14.77 2.615 14.77H11.385C11.5383 14.77 11.6793 14.706 11.808 14.578C11.936 14.4493 12 14.3083 12 14.155V1.77ZM4.808 12.77H5.808V3.77H4.808V12.77ZM8.192 12.77H9.192V3.77H8.192V12.77Z" fill="black"/>
</svg>
