<svg width="24" height="22" viewBox="0 0 24 22" fill="none" xmlns="http://www.w3.org/2000/svg">
<path d="M12.12 18.5946L12 18.7142L11.868 18.5946C6.168 13.4407 2.4 10.0327 2.4 6.57688C2.4 4.18529 4.2 2.39159 6.6 2.39159C8.448 2.39159 10.248 3.58739 10.884 5.21367H13.116C13.752 3.58739 15.552 2.39159 17.4 2.39159C19.8 2.39159 21.6 4.18529 21.6 6.57688C21.6 10.0327 17.832 13.4407 12.12 18.5946ZM17.4 0C15.312 0 13.308 0.968595 12 2.48726C10.692 0.968595 8.688 0 6.6 0C2.904 0 0 2.88187 0 6.57688C0 11.085 4.08 14.78 10.26 20.3644L12 21.9429L13.74 20.3644C19.92 14.78 24 11.085 24 6.57688C24 2.88187 21.096 0 17.4 0Z" fill="#5093B8"/>
</svg>
