<svg width="29" height="26" viewBox="0 0 29 26" fill="none" xmlns="http://www.w3.org/2000/svg">
<path d="M25.1377 5.25109V1.82456C25.1377 1.46163 25.289 1.11357 25.5584 0.856941C25.8277 0.600313 26.193 0.45614 26.5739 0.45614C26.9548 0.45614 27.32 0.600313 27.5894 0.856941C27.8587 1.11357 28.01 1.46163 28.01 1.82456V8.21053C28.01 8.57345 27.8587 8.92152 27.5894 9.17815C27.32 9.43477 26.9548 9.57895 26.5739 9.57895H18.9145C18.5336 9.57895 18.1683 9.43477 17.899 9.17815C17.6296 8.92152 17.4783 8.57345 17.4783 8.21053C17.4783 7.8476 17.6296 7.49954 17.899 7.24291C18.1683 6.98628 18.5336 6.8421 18.9145 6.8421H22.792C20.5038 4.30596 17.2332 2.73684 13.6486 2.73684C9.05489 2.73684 4.97434 5.3186 2.82013 9.20126C2.68911 9.44774 2.49013 9.65558 2.24455 9.80248C1.99896 9.94937 1.71603 10.0298 1.42612 10.0351C0.39593 10.0351 -0.318309 9.0626 0.14317 8.18681C2.71482 3.33712 7.76045 0 13.6505 0C18.2577 0 22.3478 2.04168 25.1396 5.25109M18.9489 26C22.5393 26 23.7361 23.1409 23.7361 19.614C23.7361 16.0872 22.5393 13.2281 18.9489 13.2281C15.3586 13.2281 14.1618 16.0872 14.1618 19.614C14.1618 23.1409 15.3586 26 18.9489 26ZM20.2453 22.6939C20.1472 22.8618 20.0037 23.0017 19.8298 23.0989C19.6957 23.1683 19.4391 23.2632 18.9489 23.2632C18.4606 23.2632 18.2021 23.1683 18.07 23.0989C17.8958 23.0012 17.7523 22.8607 17.6545 22.6921C17.3136 22.1666 17.0341 21.1649 17.0341 19.614C17.0341 18.0632 17.3136 17.0615 17.6545 16.536C17.7523 16.3674 17.8958 16.2269 18.07 16.1291C18.204 16.0598 18.4606 15.9649 18.9508 15.9649C19.4391 15.9649 19.6976 16.0598 19.8298 16.1291C20.004 16.2269 20.1475 16.3674 20.2453 16.536C20.5861 17.0615 20.8638 18.0632 20.8638 19.614C20.8638 21.1649 20.5861 22.1666 20.2453 22.6939ZM10.8089 14.5965C10.8091 14.3347 10.7304 14.0784 10.5824 13.8579C10.4343 13.6375 10.2229 13.4621 9.97338 13.3526C9.72384 13.2431 9.44658 13.2042 9.1745 13.2403C8.90241 13.2764 8.64691 13.3862 8.43831 13.5565L5.08732 16.2933C4.79784 16.5297 4.61877 16.866 4.58951 17.2282C4.56024 17.5904 4.68317 17.9488 4.93126 18.2246C5.17934 18.5005 5.53226 18.6711 5.91237 18.699C6.29248 18.7269 6.66865 18.6097 6.95813 18.3733L7.93661 17.5705V24.6316C7.93661 24.9945 8.08792 25.3426 8.35725 25.5992C8.62658 25.8558 8.99187 26 9.37275 26C9.75364 26 10.1189 25.8558 10.3883 25.5992C10.6576 25.3426 10.8089 24.9945 10.8089 24.6316V14.5965Z" fill="white" fill-opacity="0.8"/>
</svg>
