<svg width="24" height="24" viewBox="0 0 24 24" fill="none" xmlns="http://www.w3.org/2000/svg">
<path d="M12.4896 0.192954C12.3476 0.0679088 12.1728 0 11.9928 0C11.8128 0 11.638 0.0679088 11.496 0.192954L0 10.321L0.9944 11.7419L2.4 10.5036V21.6928C2.40085 22.172 2.56969 22.6313 2.86956 22.9701C3.16944 23.3089 3.57591 23.4997 4 23.5006H20C20.4241 23.4997 20.8306 23.3089 21.1304 22.9701C21.4303 22.6313 21.5992 22.172 21.6 21.6928V10.5117L23.0056 11.7501L24 10.3292L12.4896 0.192954ZM13.6 21.6928H10.4V14.4617H13.6V21.6928ZM15.2 21.6928V14.4617C15.1996 13.9824 15.0309 13.5229 14.7309 13.184C14.4309 12.845 14.0242 12.6544 13.6 12.654H10.4C9.97578 12.6544 9.56906 12.845 9.2691 13.184C8.96913 13.5229 8.80042 13.9824 8.8 14.4617V21.6928H4V9.09444L12 2.05316L20 9.10348V21.6928H15.2Z" fill="#5093B8"/>
</svg>
