<svg width="24" height="24" viewBox="0 0 24 24" fill="none" xmlns="http://www.w3.org/2000/svg">
<path d="M3.54785 20.938H20.4479C20.5805 20.938 20.7076 20.8853 20.8014 20.7916C20.8952 20.6978 20.9479 20.5706 20.9479 20.438C20.9479 20.3054 20.8952 20.1782 20.8014 20.0845C20.7076 19.9907 20.5805 19.938 20.4479 19.938H3.54785C3.41524 19.938 3.28807 19.9907 3.1943 20.0845C3.10053 20.1782 3.04785 20.3054 3.04785 20.438C3.04785 20.5706 3.10053 20.6978 3.1943 20.7916C3.28807 20.8853 3.41524 20.938 3.54785 20.938ZM9.70985 17.18C10.1323 17.0618 10.5177 16.8381 10.8299 16.53L20.3699 6.99002C20.6966 6.66203 20.88 6.21796 20.88 5.75502C20.88 5.29209 20.6966 4.84801 20.3699 4.52002L19.4299 3.59002C19.0972 3.27228 18.6549 3.09497 18.1949 3.09497C17.7348 3.09497 17.2925 3.27228 16.9599 3.59002L7.41985 13.12C7.11119 13.4302 6.89035 13.8166 6.77985 14.24L6.03985 17C6.00474 17.1261 6.00384 17.2592 6.03723 17.3858C6.07062 17.5123 6.13711 17.6277 6.22985 17.72C6.3714 17.8592 6.56137 17.938 6.75985 17.94L9.70985 17.18ZM10.1199 15.82C9.9355 16.0077 9.7041 16.1424 9.44985 16.21L8.47985 16.47L7.47985 15.47L7.73985 14.5C7.8098 14.2468 7.94416 14.0159 8.12985 13.83L8.50985 13.46L10.4999 15.45L10.1199 15.82ZM11.2099 14.74L9.21985 12.75L15.9499 6.02002L17.9399 8.01002L11.2099 14.74ZM19.6599 6.29002L18.6499 7.30002L16.6599 5.31002L17.6699 4.29002C17.7393 4.22024 17.8219 4.16487 17.9129 4.12708C18.0038 4.0893 18.1014 4.06985 18.1999 4.06985C18.2983 4.06985 18.3959 4.0893 18.4868 4.12708C18.5778 4.16487 18.6604 4.22024 18.7299 4.29002L19.6599 5.23002C19.7993 5.37116 19.8776 5.56159 19.8776 5.76002C19.8776 5.95845 19.7993 6.14888 19.6599 6.29002Z" fill="black"/>
</svg>
