<svg width="24" height="24" viewBox="0 0 24 24" fill="none" xmlns="http://www.w3.org/2000/svg">
<path d="M12.4896 0.197054C12.3476 0.0693519 12.1728 0 11.9928 0C11.8128 0 11.638 0.0693519 11.496 0.197054L0 10.5403L0.9944 11.9914L2.4 10.7268V22.1538C2.40085 22.6432 2.56969 23.1122 2.86956 23.4582C3.16944 23.8042 3.57591 23.999 4 24H20C20.4241 23.999 20.8306 23.8042 21.1304 23.4582C21.4303 23.1122 21.5992 22.6432 21.6 22.1538V10.7351L23.0056 11.9998L24 10.5486L12.4896 0.197054ZM13.6 22.1538H10.4V14.769H13.6V22.1538ZM15.2 22.1538V14.769C15.1996 14.2796 15.0309 13.8103 14.7309 13.4641C14.4309 13.118 14.0242 12.9233 13.6 12.9229H10.4C9.97578 12.9233 9.56906 13.118 9.2691 13.4641C8.96913 13.8103 8.80042 14.2796 8.8 14.769V22.1538H4V9.2877L12 2.09678L20 9.29693V22.1538H15.2Z" fill="black"/>
</svg>
