<svg width="10" height="15" viewBox="0 0 10 15" fill="none" xmlns="http://www.w3.org/2000/svg">
<path d="M9.73127 1.23838C9.81711 1.16831 9.88422 1.08588 9.92876 0.9958C9.97331 0.905722 9.99442 0.809757 9.99088 0.713387C9.98735 0.617016 9.95924 0.522125 9.90816 0.434134C9.85709 0.346142 9.78405 0.266772 9.69321 0.200555C9.60237 0.134338 9.49551 0.0825714 9.37873 0.0482105C9.26196 0.0138497 9.13755 -0.00243261 9.01262 0.000293587C8.88768 0.00301978 8.76467 0.0247009 8.6506 0.0640991C8.53653 0.103497 8.43363 0.159841 8.34779 0.229913L0.260084 6.83558C0.0930622 6.97186 0 7.15228 0 7.33982C0 7.52735 0.0930622 7.70778 0.260084 7.84405L8.34779 14.4505C8.43307 14.5221 8.53594 14.5799 8.65043 14.6206C8.76492 14.6612 8.88875 14.684 9.01472 14.6874C9.14069 14.6909 9.2663 14.675 9.38424 14.6407C9.50219 14.6064 9.61012 14.5543 9.70177 14.4876C9.79342 14.4208 9.86696 14.3407 9.91811 14.2518C9.96927 14.1629 9.99703 14.0671 9.99977 13.9699C10.0025 13.8727 9.9802 13.776 9.9341 13.6855C9.88801 13.595 9.81906 13.5125 9.73127 13.4427L2.26013 7.33982L9.73127 1.23838Z" fill="black"/>
</svg>
