<svg width="24" height="27" viewBox="0 0 24 27" fill="none" xmlns="http://www.w3.org/2000/svg">
<path d="M15.312 8.955C15.312 7.9035 14.9974 7.05825 14.368 6.41925C13.7394 5.78025 12.9117 5.46075 11.885 5.46075C11.2217 5.46075 10.643 5.607 10.149 5.8995C9.65504 6.19125 9.22771 6.64125 8.86704 7.2495C8.75437 7.422 8.61004 7.53 8.43404 7.5735C8.25737 7.617 8.09871 7.57838 7.95804 7.45763C7.84004 7.35788 7.76837 7.22738 7.74304 7.06613C7.71837 6.90413 7.74637 6.75038 7.82704 6.60488C8.30904 5.77688 8.88571 5.1615 9.55704 4.75875C10.2277 4.35525 11.0037 4.1535 11.885 4.1535C13.245 4.1535 14.3554 4.59713 15.216 5.48438C16.0774 6.37163 16.508 7.51988 16.508 8.92913C16.508 9.71513 16.356 10.449 16.052 11.1308C15.748 11.8133 15.2737 12.477 14.629 13.122C13.8457 13.893 13.307 14.5406 13.013 15.0649C12.7197 15.5899 12.5654 16.173 12.55 16.8143C12.5347 17.0048 12.4697 17.1634 12.355 17.2901C12.2404 17.4176 12.1004 17.4814 11.935 17.4814C11.7697 17.4814 11.6297 17.4154 11.515 17.2834C11.3997 17.1514 11.342 16.992 11.342 16.8053C11.342 16.0313 11.5064 15.3251 11.835 14.6869C12.163 14.0486 12.7117 13.3485 13.481 12.5865C14.1644 11.916 14.6404 11.3044 14.909 10.7516C15.1777 10.1981 15.312 9.59925 15.312 8.955ZM11.885 23.625C11.617 23.625 11.3834 23.5129 11.184 23.2886C10.984 23.0636 10.884 22.8008 10.884 22.5C10.884 22.1993 10.984 21.9364 11.184 21.7114C11.3834 21.4871 11.6167 21.375 11.884 21.375C12.1514 21.375 12.3854 21.4871 12.586 21.7114C12.7854 21.9364 12.885 22.1993 12.885 22.5C12.885 22.8008 12.785 23.0636 12.585 23.2886C12.3864 23.5129 12.153 23.625 11.885 23.625Z" fill="black"/>
</svg>
