<svg width="35" height="45" viewBox="0 0 35 45" fill="none" xmlns="http://www.w3.org/2000/svg">
<path fill-rule="evenodd" clip-rule="evenodd" d="M20.4625 3.49355e-07H3.75C2.75544 3.49355e-07 1.80161 0.395089 1.09835 1.09835C0.395088 1.80161 0 2.75544 0 3.75V41.25C0 42.2446 0.395088 43.1984 1.09835 43.9016C1.80161 44.6049 2.75544 45 3.75 45H31.25C32.2446 45 33.1984 44.6049 33.9016 43.9016C34.6049 43.1984 35 42.2446 35 41.25V15.505C34.9998 14.5662 34.6474 13.6616 34.0125 12.97L23.2275 1.215C22.876 0.831864 22.4487 0.526001 21.9727 0.316837C21.4967 0.107672 20.9824 -0.000224066 20.4625 3.49355e-07ZM2.5 3.75C2.5 3.41848 2.6317 3.10054 2.86612 2.86612C3.10054 2.6317 3.41848 2.5 3.75 2.5H20.4625C20.636 2.49981 20.8075 2.53572 20.9664 2.60544C21.1252 2.67517 21.2677 2.77718 21.385 2.905L32.17 14.66C32.3819 14.8904 32.4997 15.1919 32.5 15.505V41.25C32.5 41.5815 32.3683 41.8995 32.1339 42.1339C31.8995 42.3683 31.5815 42.5 31.25 42.5H3.75C3.41848 42.5 3.10054 42.3683 2.86612 42.1339C2.6317 41.8995 2.5 41.5815 2.5 41.25V3.75Z" fill="black" fill-opacity="0.76"/>
</svg>
