<svg width="17" height="17" viewBox="0 0 17 17" fill="none" xmlns="http://www.w3.org/2000/svg">
<path d="M0.280156 5.64201H3.80349V16.9786H0.280156V5.64201ZM2.0428 0C2.44691 1.8327e-07 2.84194 0.119857 3.17792 0.344409C3.51389 0.56896 3.77572 0.888116 3.93028 1.2615C4.08484 1.63489 4.12518 2.04573 4.0462 2.44204C3.96722 2.83836 3.77247 3.20235 3.48658 3.48796C3.2007 3.77357 2.83653 3.96798 2.44013 4.04658C2.04374 4.12518 1.63294 4.08445 1.2597 3.92954C0.886466 3.77462 0.567559 3.51249 0.343328 3.1763C0.119097 2.84011 -0.00038394 2.44496 9.26865e-07 2.04085C0.00051659 1.4994 0.215967 0.980311 0.599009 0.597633C0.982052 0.214955 1.50135 -2.45554e-07 2.0428 0ZM6.0136 5.64201H9.39103V7.19843H9.43772C9.90854 6.30738 11.0564 5.36769 12.7704 5.36769C16.3385 5.35991 17 7.70815 17 10.7529V16.9786H13.4766V11.463C13.4766 10.1498 13.4533 8.45912 11.6459 8.45912C9.8385 8.45912 9.53111 9.89103 9.53111 11.3774V16.9786H6.0136V5.64201Z" fill="white"/>
</svg>
